:SAMPLES-PER-SECOND 30
:FULLY-SPECIFIED
:DEGREES
459
root  87.5944 38.5061 3.72054 -170.933 -77.9838 171.559
RightUpLeg  -16.5316 4.60791 -10.1938
RightLeg  20.2886 -1.36968 -0.771543
RightFoot  -7.40872 -0.292937 7.02294
RightToes  -2.9104e-010 0 -3.6325e-017
Spine  11.3021 -0.0788254 -5.31545
Spine1  -1.32176 -0.716797 1.11276
HEad  1.00831 -23.2477 -5.44147
LeftShoulder1  -0.834984 5.54336 -34.7486
LeftArm  10.7151 8.82366 -38.7082
LeftForeArm  21.0816 -24.0714 -4.10184
LeftHand  -0.0298338 5.93106 0.227552
RightShoulder  -1.23195 -6.78248 31.062
RightArm  25.9986 -20.4975 38.8124
RightForeArm  10.5412 17.4977 5.58747
RightHand  -0.0779637 4.43667 -1.199
LeftUpLeg  -1.84912 7.0979 0.0575314
LeftLeg  13.4837 3.94406 0.461228
LeftFoot  -16.6623 0.107162 0.154985
LeftToes  -3.37426e-010 -1.91496e-010 5.23909e-011
460
root  87.4287 38.506 3.36814 -166.238 -79.4529 167.232
RightUpLeg  -14.6978 2.67695 -10.0037
RightLeg  17.0934 1.5035 0.287815
RightFoot  -7.17792 -0.323313 7.64036
RightToes  -2.9104e-010 0 -3.6325e-017
Spine  10.3216 0.110516 -4.20909
Spine1  -1.01667 -0.229335 0.0419246
HEad  1.59383 -25.6514 -5.89055
LeftShoulder1  -0.811089 5.48796 -34.6914
LeftArm  8.09942 9.64632 -38.8401
LeftForeArm  20.4922 -22.3853 -3.998
LeftHand  -0.0361182 5.58006 -1.62096
RightShoulder  -1.25116 -6.81614 31.2566
RightArm  27.5962 -20.5277 38.1479
RightForeArm  12.3471 16.4049 6.19515
RightHand  -0.0326565 4.09143 -0.670925
LeftUpLeg  -1.63894 6.87056 0.0659211
LeftLeg  12.5189 2.30955 0.0242722
LeftFoot  -16.1856 0.0927316 -0.108706
LeftToes  -3.37426e-010 -1.91496e-010 5.23909e-011
461
root  87.2073 38.6523 2.99608 -165.579 -80.4718 167.02
RightUpLeg  -13.5786 1.60546 -8.8733
RightLeg  15.4588 1.00566 -0.150043
RightFoot  -6.54864 -0.215383 4.03875
RightToes  -2.9104e-010 0 -3.6325e-017
Spine  9.3028 0.44742 -2.16045
Spine1  -0.80973 0.397151 -0.560465
HEad  2.48409 -27.4222 -6.75616
LeftShoulder1  -0.846664 5.57816 -34.6239
LeftArm  6.87035 10.9486 -38.6239
LeftForeArm  20.1662 -22.7351 -3.98583
LeftHand  -0.0516704 6.31596 -2.14528
RightShoulder  -1.31389 -6.93952 31.735
RightArm  27.8268 -20.0429 37.338
RightForeArm  14.7469 14.7934 6.98381
RightHand  -0.0615483 4.06467 -1.05183
LeftUpLeg  -0.59706 7.02659 1.01131
LeftLeg  10.1561 0.69274 -0.454701
LeftFoot  -14.9652 0.076838 -0.408327
LeftToes  -3.37426e-010 -1.91496e-010 5.23909e-011
462
root  86.9722 38.6812 2.62102 -166.46 -81.2214 168.198
RightUpLeg  -13.4463 1.62781 -7.96718
RightLeg  15.8049 0.235362 -0.38844
RightFoot  -6.43298 -0.207913 3.82364
RightToes  -2.9104e-010 0 -3.6325e-017
Spine  8.81271 0.737221 -0.06394
Spine1  -0.977885 0.967213 -1.45651
HEad  2.9786 -28.9281 -8.34148
LeftShoulder1  -0.863441 5.6072 -34.8523
LeftArm  5.95883 12.2851 -38.3318
LeftForeArm  18.9271 -22.8024 -4.03439
LeftHand  -0.0542855 7.41875 -0.673973
RightShoulder  -1.30858 -6.92797 31.7066
RightArm  26.1206 -19.209 37.0333
RightForeArm  17.5963 13.3563 7.41002
RightHand  -0.0815761 2.81298 -1.36223
LeftUpLeg  -0.428496 7.02024 1.79479
LeftLeg  9.83705 0.0356764 -0.191152
LeftFoot  -14.5571 0.066722 -0.734452
LeftToes  -3.37426e-010 -1.91496e-010 5.23909e-011
463
root  86.6748 38.6668 2.2261 -170.787 -81.4764 172.467
RightUpLeg  -12.7776 -0.0259998 -6.64119
RightLeg  15.8732 1.72246 0.140344
RightFoot  -6.77084 -0.185116 3.5051
RightToes  -2.9104e-010 0 -3.6325e-017
Spine  8.36179 0.764806 2.78604
Spine1  -0.526618 1.43655 -3.2148
HEad  2.98284 -29.7738 -9.2035
LeftShoulder1  -0.811778 5.50438 -34.3949
LeftArm  3.35339 14.6717 -38.3994
LeftForeArm  19.8877 -23.4818 -4.01945
LeftHand  -0.0366596 7.12906 0.0892113
RightShoulder  -1.27621 -6.84625 31.668
RightArm  23.7981 -17.6598 37.0393
RightForeArm  18.5754 12.1666 7.56001
RightHand  -0.0270674 2.95091 -0.604582
LeftUpLeg  -0.143924 7.19422 2.96933
LeftLeg  10.458 -0.318021 0.230861
LeftFoot  -14.5949 0.0510383 -1.23993
LeftToes  -3.37426e-010 -1.91496e-010 5.23909e-011
464
root  86.3501 38.6011 1.77807 -174.016 -81.9727 175.011
RightUpLeg  -11.2076 -1.28844 -5.71438
RightLeg  15.8967 2.70251 0.442969
RightFoot  -8.01398 -0.169744 3.95222
RightToes  -2.9104e-010 0 -3.6325e-017
Spine  8.34746 0.832302 3.91778
Spine1  -0.000421764 1.53591 -3.00009
HEad  3.11007 -30.5292 -10.3568
LeftShoulder1  -0.772394 5.41444 -34.2478
LeftArm  1.80723 17.2277 -38.154
LeftForeArm  21.1088 -24.8652 -4.20402
LeftHand  -0.031153 5.73253 0.379495
RightShoulder  -1.29312 -6.8781 31.8067
RightArm  22.1324 -15.598 36.5829
RightForeArm  17.1671 11.6703 7.48697
RightHand  -0.102782 2.94756 -1.66031
LeftUpLeg  0.294647 6.46311 3.93511
LeftLeg  12.2059 0.316767 0.854645
LeftFoot  -14.9785 0.00516107 -2.68126
LeftToes  -3.37426e-010 -1.91496e-010 5.23909e-011
465
root  86.0124 38.4935 1.35658 178.438 -83.1633 -178.307
RightUpLeg  -9.33604 -3.22006 -4.24365
RightLeg  16.0859 3.71132 0.613077
RightFoot  -9.58371 -0.121652 3.63619
RightToes  -2.9104e-010 0 -3.6325e-017
Spine  8.3599 0.673243 5.43354
Spine1  0.614557 1.34131 -1.74044
HEad  3.70964 -31.1829 -10.7881
LeftShoulder1  -0.755732 5.37851 -34.1366
LeftArm  1.70788 19.096 -37.7249
LeftForeArm  21.5704 -25.7073 -4.36482
LeftHand  -0.026779 5.42647 1.41124
RightShoulder  -1.34723 -6.97832 32.2626
RightArm  20.7278 -13.0501 35.8084
RightForeArm  15.6214 11.4775 7.30876
RightHand  -0.0991915 3.74694 -1.51793
LeftUpLeg  0.208411 3.52266 5.2683
LeftLeg  15.0265 1.83852 1.36047
LeftFoot  -15.08 0.0157464 -2.2375
LeftToes  -3.37426e-010 -1.91496e-010 5.23909e-011
466
root  85.7458 38.3057 0.977903 165.083 -84.8979 -165.633
RightUpLeg  -8.27171 -5.24515 -2.86778
RightLeg  17.3947 3.82767 0.78745
RightFoot  -11.3932 -0.0755727 3.12117
RightToes  -2.9104e-010 0 -3.6325e-017
Spine  8.40951 0.223856 6.99493
Spine1  1.06547 0.883561 -0.432456
HEad  4.44707 -31.8493 -10.3167
LeftShoulder1  -0.767684 5.40811 -34.1378
LeftArm  1.78672 19.7977 -37.6723
LeftForeArm  21.7401 -25.7289 -4.36085
LeftHand  -0.0060691 7.05414 1.92621
RightShoulder  -1.3901 -7.08044 32.3567
RightArm  18.3693 -9.66881 35.7688
RightForeArm  15.14 10.6102 7.16094
RightHand  -0.101937 3.68931 -1.55238
LeftUpLeg  -1.98681 0.310764 6.67555
LeftLeg  21.1239 4.47451 2.17868
LeftFoot  -15.4133 -0.0361308 -3.76918
LeftToes  -3.37426e-010 -1.91496e-010 5.23909e-011
467
root  85.5512 38.1594 0.620287 140.554 -86.9321 -141.458
RightUpLeg  -7.48216 -7.30606 -2.05434
RightLeg  18.3634 3.47771 1.03392
RightFoot  -12.9363 -0.0464419 2.94538
RightToes  -2.9104e-010 0 -3.6325e-017
Spine  8.30061 -0.346539 7.79925
Spine1  1.47517 0.215304 0.845116
HEad  5.06825 -32.8747 -9.11313
LeftShoulder1  -0.756738 5.38768 -33.9927
LeftArm  0.727668 19.9559 -38.4966
LeftForeArm  22.1059 -25.2206 -4.23139
LeftHand  0.0223931 8.39905 2.50008
RightShoulder  -1.44138 -7.18621 32.6364
RightArm  15.7385 -5.45978 36.0141
RightForeArm  15.1494 9.23135 6.98731
RightHand  -0.143464 4.24705 -2.01048
LeftUpLeg  -6.04883 -0.91675 7.75714
LeftLeg  29.0898 5.24923 3.50897
LeftFoot  -13.4176 -0.0347265 -6.01386
LeftToes  -3.37426e-010 -1.91496e-010 5.23909e-011
468
root  85.2957 38.0898 0.280016 116.218 -87.6834 -117.729
RightUpLeg  -6.58 -8.09631 -1.63025
RightLeg  19.348 3.10252 1.10773
RightFoot  -14.0217 -0.0243887 3.00626
RightToes  -2.9104e-010 0 -3.6325e-017
Spine  8.91894 -0.479163 8.69628
Spine1  1.02776 0.263391 1.04238
HEad  6.05815 -33.9622 -7.91629
LeftShoulder1  -0.671048 5.1883 -33.6731
LeftArm  0.133488 20.8021 -38.6724
LeftForeArm  22.3869 -24.8472 -4.13704
LeftHand  -0.0108209 6.96097 1.77746
RightShoulder  -1.43673 -7.15333 32.8545
RightArm  13.5938 -1.61578 36.4356
RightForeArm  15.3177 7.58081 6.70516
RightHand  -0.104131 4.66902 -1.49001
LeftUpLeg  -9.60395 -1.15701 7.94666
LeftLeg  36.3185 6.23645 5.25469
LeftFoot  -9.62598 0.114816 -4.24697
LeftToes  -3.37426e-010 -1.91496e-010 5.23909e-011
